<svg viewBox="-466.30065359477123 -229.99999999999997 692.6013071895425 369.99999999999994" xmlns="http://www.w3.org/2000/svg" tabindex="0" style="width: 100%; height: 100%; cursor: crosshair;"><g id="zoom"><rect id="canvas-handle" x="-5000" y="-5000" width="10000" height="10000" fill="none"/><g class="edge"><path stroke="rgba(0,0,0,0)" stroke-width="4" fill="none" d="M90 110 Q 15.119290934800503 108.6481732025949 -140 110" style="cursor: pointer;"/><path stroke="#738091" stroke-width="1" fill="none" d="M90 110 Q 15.119290934800503 108.6481732025949 -140 110" stroke-dasharray="0" marker-end="" style="pointer-events: none;"/></g><g transform="translate(-4.940354532599748 109.32408660129745)" class="EdgeLabel"><g class="edge-handle"><rect class="EdgeLabel__outline" x="-14.834660530090332" y="-4.401960849761963" rx="3" stroke="#738091" stroke-width=".8px" fill="white" width="29.669321060180664" height="8.803921699523926"/><text text-anchor="middle" dy="1.4509804248809814" class="EdgeLabel__text" fill="#738091" pointer-events="none" style="font-size: 5px; font-family: sans-serif; user-select: none;">Directorship</text></g></g><g class="edge"><path stroke="rgba(0,0,0,0)" stroke-width="4" fill="none" d="M90 10 Q 68.28104392405982 4.464632357001414 -140 -50" style="cursor: pointer;"/><path stroke="#738091" stroke-width="1" fill="none" d="M90 10 Q 68.28104392405982 4.464632357001414 -140 -50" stroke-dasharray="0" marker-end="" style="pointer-events: none;"/></g><g transform="translate(21.640521962029908 -7.7676838214992925)" class="EdgeLabel"><g class="edge-handle"><rect class="EdgeLabel__outline" x="-14.834660530090332" y="-4.401960849761963" rx="3" stroke="#738091" stroke-width=".8px" fill="white" width="29.669321060180664" height="8.803921699523926"/><text text-anchor="middle" dy="1.4509804248809814" class="EdgeLabel__text" fill="#738091" pointer-events="none" style="font-size: 5px; font-family: sans-serif; user-select: none;">Directorship</text></g></g><g class="edge"><path stroke="rgba(0,0,0,0)" stroke-width="4" fill="none" d="M90 10 Q 49.26827189010743 10.90577875541016 -140 10" style="cursor: pointer;"/><path stroke="#738091" stroke-width="1" fill="none" d="M90 10 Q 49.26827189010743 10.90577875541016 -140 10" stroke-dasharray="0" marker-end="" style="pointer-events: none;"/></g><g transform="translate(12.13413594505371 10.45288937770508)" class="EdgeLabel"><g class="edge-handle"><rect class="EdgeLabel__outline" x="-24.284927368164062" y="-4.401960849761963" rx="3" stroke="#738091" stroke-width=".8px" fill="white" width="48.569854736328125" height="8.803921699523926"/><text text-anchor="middle" dy="1.4509804248809814" class="EdgeLabel__text" fill="#738091" pointer-events="none" style="font-size: 5px; font-family: sans-serif; user-select: none;">Partner, Co-Founder</text></g></g><g class="edge"><path stroke="rgba(0,0,0,0)" stroke-width="4" fill="none" d="M90 110 Q 54.07448593900202 100.84369029313447 -140 10" style="cursor: pointer;"/><path stroke="#738091" stroke-width="1" fill="none" d="M90 110 Q 54.07448593900202 100.84369029313447 -140 10" stroke-dasharray="0" marker-end="" style="pointer-events: none;"/></g><g transform="translate(14.537242969501005 80.42184514656724)" class="EdgeLabel"><g class="edge-handle"><rect class="EdgeLabel__outline" x="-10.810457229614258" y="-4.401960849761963" rx="3" stroke="#738091" stroke-width=".8px" fill="white" width="21.620914459228516" height="8.803921699523926"/><text text-anchor="middle" dy="1.4509804248809814" class="EdgeLabel__text" fill="#738091" pointer-events="none" style="font-size: 5px; font-family: sans-serif; user-select: none;">Founder</text></g></g><g class="edge"><path stroke="rgba(0,0,0,0)" stroke-width="4" fill="none" d="M90 110 Q 110.81389135667914 116.14653315430414 -140 -50" style="cursor: pointer;"/><path stroke="#738091" stroke-width="1" fill="none" d="M90 110 Q 110.81389135667914 116.14653315430414 -140 -50" stroke-dasharray="0" marker-end="" style="pointer-events: none;"/></g><g transform="translate(42.90694567833957 73.07326657715207)" class="EdgeLabel"><g class="edge-handle"><rect class="EdgeLabel__outline" x="-22.338951110839844" y="-4.401960849761963" rx="3" stroke="#738091" stroke-width=".8px" fill="white" width="44.67790222167969" height="8.803921699523926"/><text text-anchor="middle" dy="1.4509804248809814" class="EdgeLabel__text" fill="#738091" pointer-events="none" style="font-size: 5px; font-family: sans-serif; user-select: none;">Founder/Chairman</text></g></g><g class="edge"><path stroke="rgba(0,0,0,0)" stroke-width="4" fill="none" d="M90 110 Q -17.136312702024824 94.11048533951111 -140 60" style="cursor: pointer;"/><path stroke="#738091" stroke-width="1" fill="none" d="M90 110 Q -17.136312702024824 94.11048533951111 -140 60" stroke-dasharray="0" marker-end="" style="pointer-events: none;"/></g><g transform="translate(-21.068156351012412 89.55524266975556)" class="EdgeLabel"><g class="edge-handle"><rect class="EdgeLabel__outline" x="-31.36979103088379" y="-4.401960849761963" rx="3" stroke="#738091" stroke-width=".8px" fill="white" width="62.73958206176758" height="8.803921699523926"/><text text-anchor="middle" dy="1.4509804248809814" class="EdgeLabel__text" fill="#738091" pointer-events="none" style="font-size: 5px; font-family: sans-serif; user-select: none;">Managing Director, Partner</text></g></g><g class="edge"><path stroke="rgba(0,0,0,0)" stroke-width="4" fill="none" d="M90 10 L -140 60" style="cursor: pointer;"/><path stroke="#738091" stroke-width="1" fill="none" d="M90 10 L -140 60" stroke-dasharray="0" marker-end="" style="pointer-events: none;"/></g><g transform="translate(-25 35)" class="EdgeLabel"><g class="edge-handle"><rect class="EdgeLabel__outline" x="-12.059283256530762" y="-4.401960849761963" rx="3" stroke="#738091" stroke-width=".8px" fill="white" width="24.118566513061523" height="8.803921699523926"/><text text-anchor="middle" dy="1.4509804248809814" class="EdgeLabel__text" fill="#738091" pointer-events="none" style="font-size: 5px; font-family: sans-serif; user-select: none;">President</text></g></g><g class="edge"><path stroke="rgba(0,0,0,0)" stroke-width="4" fill="none" d="M-330 -50 L -140 -50" style="cursor: pointer;"/><path stroke="#738091" stroke-width="1" fill="none" d="M-330 -50 L -140 -50" stroke-dasharray="0" marker-end="" style="pointer-events: none;"/></g><g transform="translate(-235 -50)" class="EdgeLabel"><g class="edge-handle"><rect class="EdgeLabel__outline" x="-36.64659881591797" y="-4.401960849761963" rx="3" stroke="#738091" stroke-width=".8px" fill="white" width="73.29319763183594" height="8.803921699523926"/><text text-anchor="middle" dy="1.4509804248809814" class="EdgeLabel__text" fill="#738091" pointer-events="none" style="font-size: 5px; font-family: sans-serif; user-select: none;">Chief Scientific Officer, Founder</text></g></g><g class="edge"><path stroke="rgba(0,0,0,0)" stroke-width="4" fill="none" d="M90 10 L -140 -200" style="cursor: pointer;"/><path stroke="#738091" stroke-width="1" fill="none" d="M90 10 L -140 -200" stroke-dasharray="0" marker-end="" style="pointer-events: none;"/></g><g transform="translate(-25 -95)" class="EdgeLabel"><g class="edge-handle"><rect class="EdgeLabel__outline" x="-38.45087814331055" y="-4.401960849761963" rx="3" stroke="#738091" stroke-width=".8px" fill="white" width="76.9017562866211" height="8.803921699523926"/><text text-anchor="middle" dy="1.4509804248809814" class="EdgeLabel__text" fill="#738091" pointer-events="none" style="font-size: 5px; font-family: sans-serif; user-select: none;">Member of the Board of Directors</text></g></g><g class="edge"><path stroke="rgba(0,0,0,0)" stroke-width="4" fill="none" d="M-330 -50 L -140 -150" style="cursor: pointer;"/><path stroke="#738091" stroke-width="1" fill="none" d="M-330 -50 L -140 -150" stroke-dasharray="0" marker-end="" style="pointer-events: none;"/></g><g transform="translate(-235 -100)" class="EdgeLabel"><g class="edge-handle"><rect class="EdgeLabel__outline" x="-14.834660530090332" y="-4.401960849761963" rx="3" stroke="#738091" stroke-width=".8px" fill="white" width="29.669321060180664" height="8.803921699523926"/><text text-anchor="middle" dy="1.4509804248809814" class="EdgeLabel__text" fill="#738091" pointer-events="none" style="font-size: 5px; font-family: sans-serif; user-select: none;">Directorship</text></g></g><g class="edge"><path stroke="rgba(0,0,0,0)" stroke-width="4" fill="none" d="M-330 -50 L -140 -100" style="cursor: pointer;"/><path stroke="#738091" stroke-width="1" fill="none" d="M-330 -50 L -140 -100" stroke-dasharray="0" marker-end="" style="pointer-events: none;"/></g><g transform="translate(-235 -75)" class="EdgeLabel"><g class="edge-handle"><rect class="EdgeLabel__outline" x="-14.834660530090332" y="-4.401960849761963" rx="3" stroke="#738091" stroke-width=".8px" fill="white" width="29.669321060180664" height="8.803921699523926"/><text text-anchor="middle" dy="1.4509804248809814" class="EdgeLabel__text" fill="#738091" pointer-events="none" style="font-size: 5px; font-family: sans-serif; user-select: none;">Directorship</text></g></g><g class="edge"><path stroke="rgba(0,0,0,0)" stroke-width="4" fill="none" d="M90 110 L -140 -200" style="cursor: pointer;"/><path stroke="#738091" stroke-width="1" fill="none" d="M90 110 L -140 -200" stroke-dasharray="0" marker-end="" style="pointer-events: none;"/></g><g transform="translate(-25 -45)" class="EdgeLabel"><g class="edge-handle"><rect class="EdgeLabel__outline" x="-14.834660530090332" y="-4.401960849761963" rx="3" stroke="#738091" stroke-width=".8px" fill="white" width="29.669321060180664" height="8.803921699523926"/><text text-anchor="middle" dy="1.4509804248809814" class="EdgeLabel__text" fill="#738091" pointer-events="none" style="font-size: 5px; font-family: sans-serif; user-select: none;">Directorship</text></g></g><g class="vertex" transform="translate(-140 110)" style="cursor: pointer; pointer-events: auto;"><circle class="handle" r="10" fill="#0E5A8A" stroke="none"/><text x="0" y="15" text-anchor="middle" alignment-baseline="middle" filter="url(#solid)" pointer-events="none" fill="#0E5A8A" style="font-size: 5px; font-family: sans-serif; font-weight: bold; user-select: none;">Viriom Inc</text><g transform="scale(0.5)translate(-12 -12)" fill="#FFFFFF" pointer-events="none"><path d="M1,5 L1,23 L8,23 L8,5 L1,5 Z M1,4 L9,4 L9,24 L1,24 C0.44771525,24 6.76353751e-17,23.5522847 0,23 L0,5 C-6.76353751e-17,4.44771525 0.44771525,4 1,4 Z"/><path d="M9,22 L9,23 L15,23 L15,22 L9,22 Z M8,21 L16,21 L16,24 L8,24 L8,21 Z"/><path d="M9,1 L9,21 L15,21 L15,1 L9,1 Z M9,0 L15,0 C15.5522847,-1.01453063e-16 16,0.44771525 16,1 L16,22 L8,22 L8,1 C8,0.44771525 8.44771525,1.01453063e-16 9,0 Z"/><path d="M11,3 L11,4 L13,4 L13,3 L11,3 Z M11,2 L13,2 C13.5522847,2 14,2.44771525 14,3 L14,4 C14,4.55228475 13.5522847,5 13,5 L11,5 C10.4477153,5 10,4.55228475 10,4 L10,3 C10,2.44771525 10.4477153,2 11,2 Z"/><path d="M11,7 L11,8 L13,8 L13,7 L11,7 Z M11,6 L13,6 C13.5522847,6 14,6.44771525 14,7 L14,8 C14,8.55228475 13.5522847,9 13,9 L11,9 C10.4477153,9 10,8.55228475 10,8 L10,7 C10,6.44771525 10.4477153,6 11,6 Z"/><path d="M11,11 L11,12 L13,12 L13,11 L11,11 Z M11,10 L13,10 C13.5522847,10 14,10.4477153 14,11 L14,12 C14,12.5522847 13.5522847,13 13,13 L11,13 C10.4477153,13 10,12.5522847 10,12 L10,11 C10,10.4477153 10.4477153,10 11,10 Z"/><path d="M3,8 L4,8 L4,7 L3,7 L3,8 Z M3,6 L4,6 C4.55228475,6 5,6.44771525 5,7 L5,8 C5,8.55228475 4.55228475,9 4,9 L3,9 C2.44771525,9 2,8.55228475 2,8 L2,7 C2,6.44771525 2.44771525,6 3,6 Z"/><path d="M7,8 L8,8 L8,7 L7,7 L7,8 Z M7,6 L8,6 C8.55228475,6 9,6.44771525 9,7 L9,8 C9,8.55228475 8.55228475,9 8,9 L7,9 C6.44771525,9 6,8.55228475 6,8 L6,7 C6,6.44771525 6.44771525,6 7,6 Z"/><path d="M3,12 L4,12 L4,11 L3,11 L3,12 Z M3,10 L4,10 C4.55228475,10 5,10.4477153 5,11 L5,12 C5,12.5522847 4.55228475,13 4,13 L3,13 C2.44771525,13 2,12.5522847 2,12 L2,11 C2,10.4477153 2.44771525,10 3,10 Z"/><path d="M7,12 L8,12 L8,11 L7,11 L7,12 Z M7,10 L8,10 C8.55228475,10 9,10.4477153 9,11 L9,12 C9,12.5522847 8.55228475,13 8,13 L7,13 C6.44771525,13 6,12.5522847 6,12 L6,11 C6,10.4477153 6.44771525,10 7,10 Z"/><path d="M3,16 L4,16 L4,15 L3,15 L3,16 Z M3,14 L4,14 C4.55228475,14 5,14.4477153 5,15 L5,16 C5,16.5522847 4.55228475,17 4,17 L3,17 C2.44771525,17 2,16.5522847 2,16 L2,15 C2,14.4477153 2.44771525,14 3,14 Z"/><path d="M7,16 L8,16 L8,15 L7,15 L7,16 Z M7,14 L8,14 C8.55228475,14 9,14.4477153 9,15 L9,16 C9,16.5522847 8.55228475,17 8,17 L7,17 C6.44771525,17 6,16.5522847 6,16 L6,15 C6,14.4477153 6.44771525,14 7,14 Z"/><path d="M3,20 L4,20 L4,19 L3,19 L3,20 Z M3,18 L4,18 C4.55228475,18 5,18.4477153 5,19 L5,20 C5,20.5522847 4.55228475,21 4,21 L3,21 C2.44771525,21 2,20.5522847 2,20 L2,19 C2,18.4477153 2.44771525,18 3,18 Z"/><path d="M7,20 L8,20 L8,19 L7,19 L7,20 Z M7,18 L8,18 C8.55228475,18 9,18.4477153 9,19 L9,20 C9,20.5522847 8.55228475,21 8,21 L7,21 C6.44771525,21 6,20.5522847 6,20 L6,19 C6,18.4477153 6.44771525,18 7,18 Z"/><path d="M16,20 L17,20 L17,19 L16,19 L16,20 Z M16,18 L17,18 C17.5522847,18 18,18.4477153 18,19 L18,20 C18,20.5522847 17.5522847,21 17,21 L16,21 C15.4477153,21 15,20.5522847 15,20 L15,19 C15,18.4477153 15.4477153,18 16,18 Z"/><path d="M20,20 L21,20 L21,19 L20,19 L20,20 Z M20,18 L21,18 C21.5522847,18 22,18.4477153 22,19 L22,20 C22,20.5522847 21.5522847,21 21,21 L20,21 C19.4477153,21 19,20.5522847 19,20 L19,19 C19,18.4477153 19.4477153,18 20,18 Z"/><path d="M20,16 L21,16 L21,15 L20,15 L20,16 Z M20,14 L21,14 C21.5522847,14 22,14.4477153 22,15 L22,16 C22,16.5522847 21.5522847,17 21,17 L20,17 C19.4477153,17 19,16.5522847 19,16 L19,15 C19,14.4477153 19.4477153,14 20,14 Z"/><path d="M16,16 L17,16 L17,15 L16,15 L16,16 Z M16,14 L17,14 C17.5522847,14 18,14.4477153 18,15 L18,16 C18,16.5522847 17.5522847,17 17,17 L16,17 C15.4477153,17 15,16.5522847 15,16 L15,15 C15,14.4477153 15.4477153,14 16,14 Z"/><path d="M16,12 L17,12 L17,11 L16,11 L16,12 Z M16,10 L17,10 C17.5522847,10 18,10.4477153 18,11 L18,12 C18,12.5522847 17.5522847,13 17,13 L16,13 C15.4477153,13 15,12.5522847 15,12 L15,11 C15,10.4477153 15.4477153,10 16,10 Z"/><path d="M20,12 L21,12 L21,11 L20,11 L20,12 Z M20,10 L21,10 C21.5522847,10 22,10.4477153 22,11 L22,12 C22,12.5522847 21.5522847,13 21,13 L20,13 C19.4477153,13 19,12.5522847 19,12 L19,11 C19,10.4477153 19.4477153,10 20,10 Z"/><path d="M20,8 L21,8 L21,7 L20,7 L20,8 Z M20,6 L21,6 C21.5522847,6 22,6.44771525 22,7 L22,8 C22,8.55228475 21.5522847,9 21,9 L20,9 C19.4477153,9 19,8.55228475 19,8 L19,7 C19,6.44771525 19.4477153,6 20,6 Z"/><path d="M16,8 L17,8 L17,7 L16,7 L16,8 Z M16,6 L17,6 C17.5522847,6 18,6.44771525 18,7 L18,8 C18,8.55228475 17.5522847,9 17,9 L16,9 C15.4477153,9 15,8.55228475 15,8 L15,7 C15,6.44771525 15.4477153,6 16,6 Z"/><path d="M11,15 L11,16 L13,16 L13,15 L11,15 Z M11,14 L13,14 C13.5522847,14 14,14.4477153 14,15 L14,16 C14,16.5522847 13.5522847,17 13,17 L11,17 C10.4477153,17 10,16.5522847 10,16 L10,15 C10,14.4477153 10.4477153,14 11,14 Z"/><path d="M11,19 L11,21 L13,21 L13,19 L11,19 Z M11,18 L13,18 C13.5522847,18 14,18.4477153 14,19 L14,22 L10,22 L10,19 C10,18.4477153 10.4477153,18 11,18 Z"/><path d="M16,5 L16,23 L23,23 L23,5 L16,5 Z M16,4 L23,4 C23.5522847,4 24,4.44771525 24,5 L24,23 C24,23.5522847 23.5522847,24 23,24 L15,24 L15,5 C15,4.44771525 15.4477153,4 16,4 Z"/></g></g><g class="vertex" transform="translate(-140 -50)" style="cursor: pointer; pointer-events: auto;"><circle class="handle" r="10" fill="#0E5A8A" stroke="none"/><text x="0" y="15" text-anchor="middle" alignment-baseline="middle" filter="url(#solid)" pointer-events="none" fill="#0E5A8A" style="font-size: 5px; font-family: sans-serif; font-weight: bold; user-select: none;">Chemdiv Inc.</text><g transform="scale(0.5)translate(-12 -12)" fill="#FFFFFF" pointer-events="none"><path d="M1,5 L1,23 L8,23 L8,5 L1,5 Z M1,4 L9,4 L9,24 L1,24 C0.44771525,24 6.76353751e-17,23.5522847 0,23 L0,5 C-6.76353751e-17,4.44771525 0.44771525,4 1,4 Z"/><path d="M9,22 L9,23 L15,23 L15,22 L9,22 Z M8,21 L16,21 L16,24 L8,24 L8,21 Z"/><path d="M9,1 L9,21 L15,21 L15,1 L9,1 Z M9,0 L15,0 C15.5522847,-1.01453063e-16 16,0.44771525 16,1 L16,22 L8,22 L8,1 C8,0.44771525 8.44771525,1.01453063e-16 9,0 Z"/><path d="M11,3 L11,4 L13,4 L13,3 L11,3 Z M11,2 L13,2 C13.5522847,2 14,2.44771525 14,3 L14,4 C14,4.55228475 13.5522847,5 13,5 L11,5 C10.4477153,5 10,4.55228475 10,4 L10,3 C10,2.44771525 10.4477153,2 11,2 Z"/><path d="M11,7 L11,8 L13,8 L13,7 L11,7 Z M11,6 L13,6 C13.5522847,6 14,6.44771525 14,7 L14,8 C14,8.55228475 13.5522847,9 13,9 L11,9 C10.4477153,9 10,8.55228475 10,8 L10,7 C10,6.44771525 10.4477153,6 11,6 Z"/><path d="M11,11 L11,12 L13,12 L13,11 L11,11 Z M11,10 L13,10 C13.5522847,10 14,10.4477153 14,11 L14,12 C14,12.5522847 13.5522847,13 13,13 L11,13 C10.4477153,13 10,12.5522847 10,12 L10,11 C10,10.4477153 10.4477153,10 11,10 Z"/><path d="M3,8 L4,8 L4,7 L3,7 L3,8 Z M3,6 L4,6 C4.55228475,6 5,6.44771525 5,7 L5,8 C5,8.55228475 4.55228475,9 4,9 L3,9 C2.44771525,9 2,8.55228475 2,8 L2,7 C2,6.44771525 2.44771525,6 3,6 Z"/><path d="M7,8 L8,8 L8,7 L7,7 L7,8 Z M7,6 L8,6 C8.55228475,6 9,6.44771525 9,7 L9,8 C9,8.55228475 8.55228475,9 8,9 L7,9 C6.44771525,9 6,8.55228475 6,8 L6,7 C6,6.44771525 6.44771525,6 7,6 Z"/><path d="M3,12 L4,12 L4,11 L3,11 L3,12 Z M3,10 L4,10 C4.55228475,10 5,10.4477153 5,11 L5,12 C5,12.5522847 4.55228475,13 4,13 L3,13 C2.44771525,13 2,12.5522847 2,12 L2,11 C2,10.4477153 2.44771525,10 3,10 Z"/><path d="M7,12 L8,12 L8,11 L7,11 L7,12 Z M7,10 L8,10 C8.55228475,10 9,10.4477153 9,11 L9,12 C9,12.5522847 8.55228475,13 8,13 L7,13 C6.44771525,13 6,12.5522847 6,12 L6,11 C6,10.4477153 6.44771525,10 7,10 Z"/><path d="M3,16 L4,16 L4,15 L3,15 L3,16 Z M3,14 L4,14 C4.55228475,14 5,14.4477153 5,15 L5,16 C5,16.5522847 4.55228475,17 4,17 L3,17 C2.44771525,17 2,16.5522847 2,16 L2,15 C2,14.4477153 2.44771525,14 3,14 Z"/><path d="M7,16 L8,16 L8,15 L7,15 L7,16 Z M7,14 L8,14 C8.55228475,14 9,14.4477153 9,15 L9,16 C9,16.5522847 8.55228475,17 8,17 L7,17 C6.44771525,17 6,16.5522847 6,16 L6,15 C6,14.4477153 6.44771525,14 7,14 Z"/><path d="M3,20 L4,20 L4,19 L3,19 L3,20 Z M3,18 L4,18 C4.55228475,18 5,18.4477153 5,19 L5,20 C5,20.5522847 4.55228475,21 4,21 L3,21 C2.44771525,21 2,20.5522847 2,20 L2,19 C2,18.4477153 2.44771525,18 3,18 Z"/><path d="M7,20 L8,20 L8,19 L7,19 L7,20 Z M7,18 L8,18 C8.55228475,18 9,18.4477153 9,19 L9,20 C9,20.5522847 8.55228475,21 8,21 L7,21 C6.44771525,21 6,20.5522847 6,20 L6,19 C6,18.4477153 6.44771525,18 7,18 Z"/><path d="M16,20 L17,20 L17,19 L16,19 L16,20 Z M16,18 L17,18 C17.5522847,18 18,18.4477153 18,19 L18,20 C18,20.5522847 17.5522847,21 17,21 L16,21 C15.4477153,21 15,20.5522847 15,20 L15,19 C15,18.4477153 15.4477153,18 16,18 Z"/><path d="M20,20 L21,20 L21,19 L20,19 L20,20 Z M20,18 L21,18 C21.5522847,18 22,18.4477153 22,19 L22,20 C22,20.5522847 21.5522847,21 21,21 L20,21 C19.4477153,21 19,20.5522847 19,20 L19,19 C19,18.4477153 19.4477153,18 20,18 Z"/><path d="M20,16 L21,16 L21,15 L20,15 L20,16 Z M20,14 L21,14 C21.5522847,14 22,14.4477153 22,15 L22,16 C22,16.5522847 21.5522847,17 21,17 L20,17 C19.4477153,17 19,16.5522847 19,16 L19,15 C19,14.4477153 19.4477153,14 20,14 Z"/><path d="M16,16 L17,16 L17,15 L16,15 L16,16 Z M16,14 L17,14 C17.5522847,14 18,14.4477153 18,15 L18,16 C18,16.5522847 17.5522847,17 17,17 L16,17 C15.4477153,17 15,16.5522847 15,16 L15,15 C15,14.4477153 15.4477153,14 16,14 Z"/><path d="M16,12 L17,12 L17,11 L16,11 L16,12 Z M16,10 L17,10 C17.5522847,10 18,10.4477153 18,11 L18,12 C18,12.5522847 17.5522847,13 17,13 L16,13 C15.4477153,13 15,12.5522847 15,12 L15,11 C15,10.4477153 15.4477153,10 16,10 Z"/><path d="M20,12 L21,12 L21,11 L20,11 L20,12 Z M20,10 L21,10 C21.5522847,10 22,10.4477153 22,11 L22,12 C22,12.5522847 21.5522847,13 21,13 L20,13 C19.4477153,13 19,12.5522847 19,12 L19,11 C19,10.4477153 19.4477153,10 20,10 Z"/><path d="M20,8 L21,8 L21,7 L20,7 L20,8 Z M20,6 L21,6 C21.5522847,6 22,6.44771525 22,7 L22,8 C22,8.55228475 21.5522847,9 21,9 L20,9 C19.4477153,9 19,8.55228475 19,8 L19,7 C19,6.44771525 19.4477153,6 20,6 Z"/><path d="M16,8 L17,8 L17,7 L16,7 L16,8 Z M16,6 L17,6 C17.5522847,6 18,6.44771525 18,7 L18,8 C18,8.55228475 17.5522847,9 17,9 L16,9 C15.4477153,9 15,8.55228475 15,8 L15,7 C15,6.44771525 15.4477153,6 16,6 Z"/><path d="M11,15 L11,16 L13,16 L13,15 L11,15 Z M11,14 L13,14 C13.5522847,14 14,14.4477153 14,15 L14,16 C14,16.5522847 13.5522847,17 13,17 L11,17 C10.4477153,17 10,16.5522847 10,16 L10,15 C10,14.4477153 10.4477153,14 11,14 Z"/><path d="M11,19 L11,21 L13,21 L13,19 L11,19 Z M11,18 L13,18 C13.5522847,18 14,18.4477153 14,19 L14,22 L10,22 L10,19 C10,18.4477153 10.4477153,18 11,18 Z"/><path d="M16,5 L16,23 L23,23 L23,5 L16,5 Z M16,4 L23,4 C23.5522847,4 24,4.44771525 24,5 L24,23 C24,23.5522847 23.5522847,24 23,24 L15,24 L15,5 C15,4.44771525 15.4477153,4 16,4 Z"/></g></g><g class="vertex" transform="translate(90 110)" style="cursor: pointer; pointer-events: auto;"><circle class="handle" r="10" fill="#0E5A8A" stroke="none"/><text x="0" y="15" text-anchor="middle" alignment-baseline="middle" filter="url(#solid)" pointer-events="none" fill="#0E5A8A" style="font-size: 5px; font-family: sans-serif; font-weight: bold; user-select: none;">Nikolay F. Savchuk</text><g transform="scale(0.5)translate(-12 -12)" fill="#FFFFFF" pointer-events="none"><path d="M12,11 C13.6568542,11 15,9.65685425 15,8 C15,6.34314575 13.6568542,5 12,5 C10.3431458,5 9,6.34314575 9,8 C9,9.65685425 10.3431458,11 12,11 Z M12,12 C9.790861,12 8,10.209139 8,8 C8,5.790861 9.790861,4 12,4 C14.209139,4 16,5.790861 16,8 C16,10.209139 14.209139,12 12,12 Z"/><path d="M12,23 C18.0751322,23 23,18.0751322 23,12 C23,5.92486775 18.0751322,1 12,1 C5.92486775,1 1,5.92486775 1,12 C1,18.0751322 5.92486775,23 12,23 Z M12,24 C5.372583,24 0,18.627417 0,12 C0,5.372583 5.372583,0 12,0 C18.627417,0 24,5.372583 24,12 C24,18.627417 18.627417,24 12,24 Z"/><path d="M6.26048636,22.5410025 L6,22.3988516 L6,16 C6,13.790861 7.79086101,12 10,12 L14,12 C16.209139,12 18,13.790861 18,16 L18,22.3988516 L17.7395136,22.5410025 C15.9837925,23.4991231 14.0217637,24 12,24 C9.97823628,24 8.01620746,23.4991231 6.26048636,22.5410025 Z M7,21.8008531 C8.54132532,22.5890695 10.2451424,23 12,23 C13.7548576,23 15.4586747,22.5890695 17,21.8008531 L17,16 C17,14.3431458 15.6568542,13 14,13 L10,13 C8.34314576,13 7,14.3431458 7,16 L7,21.8008531 Z"/></g></g><g class="vertex" transform="translate(-140 60)" style="cursor: pointer; pointer-events: auto;"><circle class="handle" r="10" fill="#0E5A8A" stroke="none"/><text x="0" y="15" text-anchor="middle" alignment-baseline="middle" filter="url(#solid)" pointer-events="none" fill="#0E5A8A" style="font-size: 5px; font-family: sans-serif; font-weight: bold; user-select: none;">Torrey Pines Investment</text><g transform="scale(0.5)translate(-12 -12)" fill="#FFFFFF" pointer-events="none"><path d="M1,5 L1,23 L8,23 L8,5 L1,5 Z M1,4 L9,4 L9,24 L1,24 C0.44771525,24 6.76353751e-17,23.5522847 0,23 L0,5 C-6.76353751e-17,4.44771525 0.44771525,4 1,4 Z"/><path d="M9,22 L9,23 L15,23 L15,22 L9,22 Z M8,21 L16,21 L16,24 L8,24 L8,21 Z"/><path d="M9,1 L9,21 L15,21 L15,1 L9,1 Z M9,0 L15,0 C15.5522847,-1.01453063e-16 16,0.44771525 16,1 L16,22 L8,22 L8,1 C8,0.44771525 8.44771525,1.01453063e-16 9,0 Z"/><path d="M11,3 L11,4 L13,4 L13,3 L11,3 Z M11,2 L13,2 C13.5522847,2 14,2.44771525 14,3 L14,4 C14,4.55228475 13.5522847,5 13,5 L11,5 C10.4477153,5 10,4.55228475 10,4 L10,3 C10,2.44771525 10.4477153,2 11,2 Z"/><path d="M11,7 L11,8 L13,8 L13,7 L11,7 Z M11,6 L13,6 C13.5522847,6 14,6.44771525 14,7 L14,8 C14,8.55228475 13.5522847,9 13,9 L11,9 C10.4477153,9 10,8.55228475 10,8 L10,7 C10,6.44771525 10.4477153,6 11,6 Z"/><path d="M11,11 L11,12 L13,12 L13,11 L11,11 Z M11,10 L13,10 C13.5522847,10 14,10.4477153 14,11 L14,12 C14,12.5522847 13.5522847,13 13,13 L11,13 C10.4477153,13 10,12.5522847 10,12 L10,11 C10,10.4477153 10.4477153,10 11,10 Z"/><path d="M3,8 L4,8 L4,7 L3,7 L3,8 Z M3,6 L4,6 C4.55228475,6 5,6.44771525 5,7 L5,8 C5,8.55228475 4.55228475,9 4,9 L3,9 C2.44771525,9 2,8.55228475 2,8 L2,7 C2,6.44771525 2.44771525,6 3,6 Z"/><path d="M7,8 L8,8 L8,7 L7,7 L7,8 Z M7,6 L8,6 C8.55228475,6 9,6.44771525 9,7 L9,8 C9,8.55228475 8.55228475,9 8,9 L7,9 C6.44771525,9 6,8.55228475 6,8 L6,7 C6,6.44771525 6.44771525,6 7,6 Z"/><path d="M3,12 L4,12 L4,11 L3,11 L3,12 Z M3,10 L4,10 C4.55228475,10 5,10.4477153 5,11 L5,12 C5,12.5522847 4.55228475,13 4,13 L3,13 C2.44771525,13 2,12.5522847 2,12 L2,11 C2,10.4477153 2.44771525,10 3,10 Z"/><path d="M7,12 L8,12 L8,11 L7,11 L7,12 Z M7,10 L8,10 C8.55228475,10 9,10.4477153 9,11 L9,12 C9,12.5522847 8.55228475,13 8,13 L7,13 C6.44771525,13 6,12.5522847 6,12 L6,11 C6,10.4477153 6.44771525,10 7,10 Z"/><path d="M3,16 L4,16 L4,15 L3,15 L3,16 Z M3,14 L4,14 C4.55228475,14 5,14.4477153 5,15 L5,16 C5,16.5522847 4.55228475,17 4,17 L3,17 C2.44771525,17 2,16.5522847 2,16 L2,15 C2,14.4477153 2.44771525,14 3,14 Z"/><path d="M7,16 L8,16 L8,15 L7,15 L7,16 Z M7,14 L8,14 C8.55228475,14 9,14.4477153 9,15 L9,16 C9,16.5522847 8.55228475,17 8,17 L7,17 C6.44771525,17 6,16.5522847 6,16 L6,15 C6,14.4477153 6.44771525,14 7,14 Z"/><path d="M3,20 L4,20 L4,19 L3,19 L3,20 Z M3,18 L4,18 C4.55228475,18 5,18.4477153 5,19 L5,20 C5,20.5522847 4.55228475,21 4,21 L3,21 C2.44771525,21 2,20.5522847 2,20 L2,19 C2,18.4477153 2.44771525,18 3,18 Z"/><path d="M7,20 L8,20 L8,19 L7,19 L7,20 Z M7,18 L8,18 C8.55228475,18 9,18.4477153 9,19 L9,20 C9,20.5522847 8.55228475,21 8,21 L7,21 C6.44771525,21 6,20.5522847 6,20 L6,19 C6,18.4477153 6.44771525,18 7,18 Z"/><path d="M16,20 L17,20 L17,19 L16,19 L16,20 Z M16,18 L17,18 C17.5522847,18 18,18.4477153 18,19 L18,20 C18,20.5522847 17.5522847,21 17,21 L16,21 C15.4477153,21 15,20.5522847 15,20 L15,19 C15,18.4477153 15.4477153,18 16,18 Z"/><path d="M20,20 L21,20 L21,19 L20,19 L20,20 Z M20,18 L21,18 C21.5522847,18 22,18.4477153 22,19 L22,20 C22,20.5522847 21.5522847,21 21,21 L20,21 C19.4477153,21 19,20.5522847 19,20 L19,19 C19,18.4477153 19.4477153,18 20,18 Z"/><path d="M20,16 L21,16 L21,15 L20,15 L20,16 Z M20,14 L21,14 C21.5522847,14 22,14.4477153 22,15 L22,16 C22,16.5522847 21.5522847,17 21,17 L20,17 C19.4477153,17 19,16.5522847 19,16 L19,15 C19,14.4477153 19.4477153,14 20,14 Z"/><path d="M16,16 L17,16 L17,15 L16,15 L16,16 Z M16,14 L17,14 C17.5522847,14 18,14.4477153 18,15 L18,16 C18,16.5522847 17.5522847,17 17,17 L16,17 C15.4477153,17 15,16.5522847 15,16 L15,15 C15,14.4477153 15.4477153,14 16,14 Z"/><path d="M16,12 L17,12 L17,11 L16,11 L16,12 Z M16,10 L17,10 C17.5522847,10 18,10.4477153 18,11 L18,12 C18,12.5522847 17.5522847,13 17,13 L16,13 C15.4477153,13 15,12.5522847 15,12 L15,11 C15,10.4477153 15.4477153,10 16,10 Z"/><path d="M20,12 L21,12 L21,11 L20,11 L20,12 Z M20,10 L21,10 C21.5522847,10 22,10.4477153 22,11 L22,12 C22,12.5522847 21.5522847,13 21,13 L20,13 C19.4477153,13 19,12.5522847 19,12 L19,11 C19,10.4477153 19.4477153,10 20,10 Z"/><path d="M20,8 L21,8 L21,7 L20,7 L20,8 Z M20,6 L21,6 C21.5522847,6 22,6.44771525 22,7 L22,8 C22,8.55228475 21.5522847,9 21,9 L20,9 C19.4477153,9 19,8.55228475 19,8 L19,7 C19,6.44771525 19.4477153,6 20,6 Z"/><path d="M16,8 L17,8 L17,7 L16,7 L16,8 Z M16,6 L17,6 C17.5522847,6 18,6.44771525 18,7 L18,8 C18,8.55228475 17.5522847,9 17,9 L16,9 C15.4477153,9 15,8.55228475 15,8 L15,7 C15,6.44771525 15.4477153,6 16,6 Z"/><path d="M11,15 L11,16 L13,16 L13,15 L11,15 Z M11,14 L13,14 C13.5522847,14 14,14.4477153 14,15 L14,16 C14,16.5522847 13.5522847,17 13,17 L11,17 C10.4477153,17 10,16.5522847 10,16 L10,15 C10,14.4477153 10.4477153,14 11,14 Z"/><path d="M11,19 L11,21 L13,21 L13,19 L11,19 Z M11,18 L13,18 C13.5522847,18 14,18.4477153 14,19 L14,22 L10,22 L10,19 C10,18.4477153 10.4477153,18 11,18 Z"/><path d="M16,5 L16,23 L23,23 L23,5 L16,5 Z M16,4 L23,4 C23.5522847,4 24,4.44771525 24,5 L24,23 C24,23.5522847 23.5522847,24 23,24 L15,24 L15,5 C15,4.44771525 15.4477153,4 16,4 Z"/></g></g><g class="vertex" transform="translate(-140 10)" style="cursor: pointer; pointer-events: auto;"><circle class="handle" r="10" fill="#0E5A8A" stroke="none"/><text x="0" y="15" text-anchor="middle" alignment-baseline="middle" filter="url(#solid)" pointer-events="none" fill="#0E5A8A" style="font-size: 5px; font-family: sans-serif; font-weight: bold; user-select: none;">Teal Ventures</text><g transform="scale(0.5)translate(-12 -12)" fill="#FFFFFF" pointer-events="none"><path d="M1,5 L1,23 L8,23 L8,5 L1,5 Z M1,4 L9,4 L9,24 L1,24 C0.44771525,24 6.76353751e-17,23.5522847 0,23 L0,5 C-6.76353751e-17,4.44771525 0.44771525,4 1,4 Z"/><path d="M9,22 L9,23 L15,23 L15,22 L9,22 Z M8,21 L16,21 L16,24 L8,24 L8,21 Z"/><path d="M9,1 L9,21 L15,21 L15,1 L9,1 Z M9,0 L15,0 C15.5522847,-1.01453063e-16 16,0.44771525 16,1 L16,22 L8,22 L8,1 C8,0.44771525 8.44771525,1.01453063e-16 9,0 Z"/><path d="M11,3 L11,4 L13,4 L13,3 L11,3 Z M11,2 L13,2 C13.5522847,2 14,2.44771525 14,3 L14,4 C14,4.55228475 13.5522847,5 13,5 L11,5 C10.4477153,5 10,4.55228475 10,4 L10,3 C10,2.44771525 10.4477153,2 11,2 Z"/><path d="M11,7 L11,8 L13,8 L13,7 L11,7 Z M11,6 L13,6 C13.5522847,6 14,6.44771525 14,7 L14,8 C14,8.55228475 13.5522847,9 13,9 L11,9 C10.4477153,9 10,8.55228475 10,8 L10,7 C10,6.44771525 10.4477153,6 11,6 Z"/><path d="M11,11 L11,12 L13,12 L13,11 L11,11 Z M11,10 L13,10 C13.5522847,10 14,10.4477153 14,11 L14,12 C14,12.5522847 13.5522847,13 13,13 L11,13 C10.4477153,13 10,12.5522847 10,12 L10,11 C10,10.4477153 10.4477153,10 11,10 Z"/><path d="M3,8 L4,8 L4,7 L3,7 L3,8 Z M3,6 L4,6 C4.55228475,6 5,6.44771525 5,7 L5,8 C5,8.55228475 4.55228475,9 4,9 L3,9 C2.44771525,9 2,8.55228475 2,8 L2,7 C2,6.44771525 2.44771525,6 3,6 Z"/><path d="M7,8 L8,8 L8,7 L7,7 L7,8 Z M7,6 L8,6 C8.55228475,6 9,6.44771525 9,7 L9,8 C9,8.55228475 8.55228475,9 8,9 L7,9 C6.44771525,9 6,8.55228475 6,8 L6,7 C6,6.44771525 6.44771525,6 7,6 Z"/><path d="M3,12 L4,12 L4,11 L3,11 L3,12 Z M3,10 L4,10 C4.55228475,10 5,10.4477153 5,11 L5,12 C5,12.5522847 4.55228475,13 4,13 L3,13 C2.44771525,13 2,12.5522847 2,12 L2,11 C2,10.4477153 2.44771525,10 3,10 Z"/><path d="M7,12 L8,12 L8,11 L7,11 L7,12 Z M7,10 L8,10 C8.55228475,10 9,10.4477153 9,11 L9,12 C9,12.5522847 8.55228475,13 8,13 L7,13 C6.44771525,13 6,12.5522847 6,12 L6,11 C6,10.4477153 6.44771525,10 7,10 Z"/><path d="M3,16 L4,16 L4,15 L3,15 L3,16 Z M3,14 L4,14 C4.55228475,14 5,14.4477153 5,15 L5,16 C5,16.5522847 4.55228475,17 4,17 L3,17 C2.44771525,17 2,16.5522847 2,16 L2,15 C2,14.4477153 2.44771525,14 3,14 Z"/><path d="M7,16 L8,16 L8,15 L7,15 L7,16 Z M7,14 L8,14 C8.55228475,14 9,14.4477153 9,15 L9,16 C9,16.5522847 8.55228475,17 8,17 L7,17 C6.44771525,17 6,16.5522847 6,16 L6,15 C6,14.4477153 6.44771525,14 7,14 Z"/><path d="M3,20 L4,20 L4,19 L3,19 L3,20 Z M3,18 L4,18 C4.55228475,18 5,18.4477153 5,19 L5,20 C5,20.5522847 4.55228475,21 4,21 L3,21 C2.44771525,21 2,20.5522847 2,20 L2,19 C2,18.4477153 2.44771525,18 3,18 Z"/><path d="M7,20 L8,20 L8,19 L7,19 L7,20 Z M7,18 L8,18 C8.55228475,18 9,18.4477153 9,19 L9,20 C9,20.5522847 8.55228475,21 8,21 L7,21 C6.44771525,21 6,20.5522847 6,20 L6,19 C6,18.4477153 6.44771525,18 7,18 Z"/><path d="M16,20 L17,20 L17,19 L16,19 L16,20 Z M16,18 L17,18 C17.5522847,18 18,18.4477153 18,19 L18,20 C18,20.5522847 17.5522847,21 17,21 L16,21 C15.4477153,21 15,20.5522847 15,20 L15,19 C15,18.4477153 15.4477153,18 16,18 Z"/><path d="M20,20 L21,20 L21,19 L20,19 L20,20 Z M20,18 L21,18 C21.5522847,18 22,18.4477153 22,19 L22,20 C22,20.5522847 21.5522847,21 21,21 L20,21 C19.4477153,21 19,20.5522847 19,20 L19,19 C19,18.4477153 19.4477153,18 20,18 Z"/><path d="M20,16 L21,16 L21,15 L20,15 L20,16 Z M20,14 L21,14 C21.5522847,14 22,14.4477153 22,15 L22,16 C22,16.5522847 21.5522847,17 21,17 L20,17 C19.4477153,17 19,16.5522847 19,16 L19,15 C19,14.4477153 19.4477153,14 20,14 Z"/><path d="M16,16 L17,16 L17,15 L16,15 L16,16 Z M16,14 L17,14 C17.5522847,14 18,14.4477153 18,15 L18,16 C18,16.5522847 17.5522847,17 17,17 L16,17 C15.4477153,17 15,16.5522847 15,16 L15,15 C15,14.4477153 15.4477153,14 16,14 Z"/><path d="M16,12 L17,12 L17,11 L16,11 L16,12 Z M16,10 L17,10 C17.5522847,10 18,10.4477153 18,11 L18,12 C18,12.5522847 17.5522847,13 17,13 L16,13 C15.4477153,13 15,12.5522847 15,12 L15,11 C15,10.4477153 15.4477153,10 16,10 Z"/><path d="M20,12 L21,12 L21,11 L20,11 L20,12 Z M20,10 L21,10 C21.5522847,10 22,10.4477153 22,11 L22,12 C22,12.5522847 21.5522847,13 21,13 L20,13 C19.4477153,13 19,12.5522847 19,12 L19,11 C19,10.4477153 19.4477153,10 20,10 Z"/><path d="M20,8 L21,8 L21,7 L20,7 L20,8 Z M20,6 L21,6 C21.5522847,6 22,6.44771525 22,7 L22,8 C22,8.55228475 21.5522847,9 21,9 L20,9 C19.4477153,9 19,8.55228475 19,8 L19,7 C19,6.44771525 19.4477153,6 20,6 Z"/><path d="M16,8 L17,8 L17,7 L16,7 L16,8 Z M16,6 L17,6 C17.5522847,6 18,6.44771525 18,7 L18,8 C18,8.55228475 17.5522847,9 17,9 L16,9 C15.4477153,9 15,8.55228475 15,8 L15,7 C15,6.44771525 15.4477153,6 16,6 Z"/><path d="M11,15 L11,16 L13,16 L13,15 L11,15 Z M11,14 L13,14 C13.5522847,14 14,14.4477153 14,15 L14,16 C14,16.5522847 13.5522847,17 13,17 L11,17 C10.4477153,17 10,16.5522847 10,16 L10,15 C10,14.4477153 10.4477153,14 11,14 Z"/><path d="M11,19 L11,21 L13,21 L13,19 L11,19 Z M11,18 L13,18 C13.5522847,18 14,18.4477153 14,19 L14,22 L10,22 L10,19 C10,18.4477153 10.4477153,18 11,18 Z"/><path d="M16,5 L16,23 L23,23 L23,5 L16,5 Z M16,4 L23,4 C23.5522847,4 24,4.44771525 24,5 L24,23 C24,23.5522847 23.5522847,24 23,24 L15,24 L15,5 C15,4.44771525 15.4477153,4 16,4 Z"/></g></g><g class="vertex" transform="translate(90 10)" style="cursor: pointer; pointer-events: auto;"><circle class="handle" r="10" fill="#0E5A8A" stroke="none"/><text x="0" y="15" text-anchor="middle" alignment-baseline="middle" filter="url(#solid)" pointer-events="none" fill="#0E5A8A" style="font-size: 5px; font-family: sans-serif; font-weight: bold; user-select: none;">Ron Demuth</text><g transform="scale(0.5)translate(-12 -12)" fill="#FFFFFF" pointer-events="none"><path d="M12,11 C13.6568542,11 15,9.65685425 15,8 C15,6.34314575 13.6568542,5 12,5 C10.3431458,5 9,6.34314575 9,8 C9,9.65685425 10.3431458,11 12,11 Z M12,12 C9.790861,12 8,10.209139 8,8 C8,5.790861 9.790861,4 12,4 C14.209139,4 16,5.790861 16,8 C16,10.209139 14.209139,12 12,12 Z"/><path d="M12,23 C18.0751322,23 23,18.0751322 23,12 C23,5.92486775 18.0751322,1 12,1 C5.92486775,1 1,5.92486775 1,12 C1,18.0751322 5.92486775,23 12,23 Z M12,24 C5.372583,24 0,18.627417 0,12 C0,5.372583 5.372583,0 12,0 C18.627417,0 24,5.372583 24,12 C24,18.627417 18.627417,24 12,24 Z"/><path d="M6.26048636,22.5410025 L6,22.3988516 L6,16 C6,13.790861 7.79086101,12 10,12 L14,12 C16.209139,12 18,13.790861 18,16 L18,22.3988516 L17.7395136,22.5410025 C15.9837925,23.4991231 14.0217637,24 12,24 C9.97823628,24 8.01620746,23.4991231 6.26048636,22.5410025 Z M7,21.8008531 C8.54132532,22.5890695 10.2451424,23 12,23 C13.7548576,23 15.4586747,22.5890695 17,21.8008531 L17,16 C17,14.3431458 15.6568542,13 14,13 L10,13 C8.34314576,13 7,14.3431458 7,16 L7,21.8008531 Z"/></g></g><g class="vertex" transform="translate(-330 -50)" style="cursor: pointer; pointer-events: auto;"><circle class="handle" r="10" fill="#0E5A8A" stroke="none"/><text x="0" y="15" text-anchor="middle" alignment-baseline="middle" filter="url(#solid)" pointer-events="none" fill="#0E5A8A" style="font-size: 5px; font-family: sans-serif; font-weight: bold; user-select: none;">Alexander Ivachtchenko</text><g transform="scale(0.5)translate(-12 -12)" fill="#FFFFFF" pointer-events="none"><path d="M12,11 C13.6568542,11 15,9.65685425 15,8 C15,6.34314575 13.6568542,5 12,5 C10.3431458,5 9,6.34314575 9,8 C9,9.65685425 10.3431458,11 12,11 Z M12,12 C9.790861,12 8,10.209139 8,8 C8,5.790861 9.790861,4 12,4 C14.209139,4 16,5.790861 16,8 C16,10.209139 14.209139,12 12,12 Z"/><path d="M12,23 C18.0751322,23 23,18.0751322 23,12 C23,5.92486775 18.0751322,1 12,1 C5.92486775,1 1,5.92486775 1,12 C1,18.0751322 5.92486775,23 12,23 Z M12,24 C5.372583,24 0,18.627417 0,12 C0,5.372583 5.372583,0 12,0 C18.627417,0 24,5.372583 24,12 C24,18.627417 18.627417,24 12,24 Z"/><path d="M6.26048636,22.5410025 L6,22.3988516 L6,16 C6,13.790861 7.79086101,12 10,12 L14,12 C16.209139,12 18,13.790861 18,16 L18,22.3988516 L17.7395136,22.5410025 C15.9837925,23.4991231 14.0217637,24 12,24 C9.97823628,24 8.01620746,23.4991231 6.26048636,22.5410025 Z M7,21.8008531 C8.54132532,22.5890695 10.2451424,23 12,23 C13.7548576,23 15.4586747,22.5890695 17,21.8008531 L17,16 C17,14.3431458 15.6568542,13 14,13 L10,13 C8.34314576,13 7,14.3431458 7,16 L7,21.8008531 Z"/></g></g><g class="vertex" transform="translate(-140 -100)" style="cursor: pointer; pointer-events: auto;"><circle class="handle" r="10" fill="#0E5A8A" stroke="none"/><text x="0" y="15" text-anchor="middle" alignment-baseline="middle" filter="url(#solid)" pointer-events="none" fill="#0E5A8A" style="font-size: 5px; font-family: sans-serif; font-weight: bold; user-select: none;">AllaChem LLC</text><g transform="scale(0.5)translate(-12 -12)" fill="#FFFFFF" pointer-events="none"><path d="M1,5 L1,23 L8,23 L8,5 L1,5 Z M1,4 L9,4 L9,24 L1,24 C0.44771525,24 6.76353751e-17,23.5522847 0,23 L0,5 C-6.76353751e-17,4.44771525 0.44771525,4 1,4 Z"/><path d="M9,22 L9,23 L15,23 L15,22 L9,22 Z M8,21 L16,21 L16,24 L8,24 L8,21 Z"/><path d="M9,1 L9,21 L15,21 L15,1 L9,1 Z M9,0 L15,0 C15.5522847,-1.01453063e-16 16,0.44771525 16,1 L16,22 L8,22 L8,1 C8,0.44771525 8.44771525,1.01453063e-16 9,0 Z"/><path d="M11,3 L11,4 L13,4 L13,3 L11,3 Z M11,2 L13,2 C13.5522847,2 14,2.44771525 14,3 L14,4 C14,4.55228475 13.5522847,5 13,5 L11,5 C10.4477153,5 10,4.55228475 10,4 L10,3 C10,2.44771525 10.4477153,2 11,2 Z"/><path d="M11,7 L11,8 L13,8 L13,7 L11,7 Z M11,6 L13,6 C13.5522847,6 14,6.44771525 14,7 L14,8 C14,8.55228475 13.5522847,9 13,9 L11,9 C10.4477153,9 10,8.55228475 10,8 L10,7 C10,6.44771525 10.4477153,6 11,6 Z"/><path d="M11,11 L11,12 L13,12 L13,11 L11,11 Z M11,10 L13,10 C13.5522847,10 14,10.4477153 14,11 L14,12 C14,12.5522847 13.5522847,13 13,13 L11,13 C10.4477153,13 10,12.5522847 10,12 L10,11 C10,10.4477153 10.4477153,10 11,10 Z"/><path d="M3,8 L4,8 L4,7 L3,7 L3,8 Z M3,6 L4,6 C4.55228475,6 5,6.44771525 5,7 L5,8 C5,8.55228475 4.55228475,9 4,9 L3,9 C2.44771525,9 2,8.55228475 2,8 L2,7 C2,6.44771525 2.44771525,6 3,6 Z"/><path d="M7,8 L8,8 L8,7 L7,7 L7,8 Z M7,6 L8,6 C8.55228475,6 9,6.44771525 9,7 L9,8 C9,8.55228475 8.55228475,9 8,9 L7,9 C6.44771525,9 6,8.55228475 6,8 L6,7 C6,6.44771525 6.44771525,6 7,6 Z"/><path d="M3,12 L4,12 L4,11 L3,11 L3,12 Z M3,10 L4,10 C4.55228475,10 5,10.4477153 5,11 L5,12 C5,12.5522847 4.55228475,13 4,13 L3,13 C2.44771525,13 2,12.5522847 2,12 L2,11 C2,10.4477153 2.44771525,10 3,10 Z"/><path d="M7,12 L8,12 L8,11 L7,11 L7,12 Z M7,10 L8,10 C8.55228475,10 9,10.4477153 9,11 L9,12 C9,12.5522847 8.55228475,13 8,13 L7,13 C6.44771525,13 6,12.5522847 6,12 L6,11 C6,10.4477153 6.44771525,10 7,10 Z"/><path d="M3,16 L4,16 L4,15 L3,15 L3,16 Z M3,14 L4,14 C4.55228475,14 5,14.4477153 5,15 L5,16 C5,16.5522847 4.55228475,17 4,17 L3,17 C2.44771525,17 2,16.5522847 2,16 L2,15 C2,14.4477153 2.44771525,14 3,14 Z"/><path d="M7,16 L8,16 L8,15 L7,15 L7,16 Z M7,14 L8,14 C8.55228475,14 9,14.4477153 9,15 L9,16 C9,16.5522847 8.55228475,17 8,17 L7,17 C6.44771525,17 6,16.5522847 6,16 L6,15 C6,14.4477153 6.44771525,14 7,14 Z"/><path d="M3,20 L4,20 L4,19 L3,19 L3,20 Z M3,18 L4,18 C4.55228475,18 5,18.4477153 5,19 L5,20 C5,20.5522847 4.55228475,21 4,21 L3,21 C2.44771525,21 2,20.5522847 2,20 L2,19 C2,18.4477153 2.44771525,18 3,18 Z"/><path d="M7,20 L8,20 L8,19 L7,19 L7,20 Z M7,18 L8,18 C8.55228475,18 9,18.4477153 9,19 L9,20 C9,20.5522847 8.55228475,21 8,21 L7,21 C6.44771525,21 6,20.5522847 6,20 L6,19 C6,18.4477153 6.44771525,18 7,18 Z"/><path d="M16,20 L17,20 L17,19 L16,19 L16,20 Z M16,18 L17,18 C17.5522847,18 18,18.4477153 18,19 L18,20 C18,20.5522847 17.5522847,21 17,21 L16,21 C15.4477153,21 15,20.5522847 15,20 L15,19 C15,18.4477153 15.4477153,18 16,18 Z"/><path d="M20,20 L21,20 L21,19 L20,19 L20,20 Z M20,18 L21,18 C21.5522847,18 22,18.4477153 22,19 L22,20 C22,20.5522847 21.5522847,21 21,21 L20,21 C19.4477153,21 19,20.5522847 19,20 L19,19 C19,18.4477153 19.4477153,18 20,18 Z"/><path d="M20,16 L21,16 L21,15 L20,15 L20,16 Z M20,14 L21,14 C21.5522847,14 22,14.4477153 22,15 L22,16 C22,16.5522847 21.5522847,17 21,17 L20,17 C19.4477153,17 19,16.5522847 19,16 L19,15 C19,14.4477153 19.4477153,14 20,14 Z"/><path d="M16,16 L17,16 L17,15 L16,15 L16,16 Z M16,14 L17,14 C17.5522847,14 18,14.4477153 18,15 L18,16 C18,16.5522847 17.5522847,17 17,17 L16,17 C15.4477153,17 15,16.5522847 15,16 L15,15 C15,14.4477153 15.4477153,14 16,14 Z"/><path d="M16,12 L17,12 L17,11 L16,11 L16,12 Z M16,10 L17,10 C17.5522847,10 18,10.4477153 18,11 L18,12 C18,12.5522847 17.5522847,13 17,13 L16,13 C15.4477153,13 15,12.5522847 15,12 L15,11 C15,10.4477153 15.4477153,10 16,10 Z"/><path d="M20,12 L21,12 L21,11 L20,11 L20,12 Z M20,10 L21,10 C21.5522847,10 22,10.4477153 22,11 L22,12 C22,12.5522847 21.5522847,13 21,13 L20,13 C19.4477153,13 19,12.5522847 19,12 L19,11 C19,10.4477153 19.4477153,10 20,10 Z"/><path d="M20,8 L21,8 L21,7 L20,7 L20,8 Z M20,6 L21,6 C21.5522847,6 22,6.44771525 22,7 L22,8 C22,8.55228475 21.5522847,9 21,9 L20,9 C19.4477153,9 19,8.55228475 19,8 L19,7 C19,6.44771525 19.4477153,6 20,6 Z"/><path d="M16,8 L17,8 L17,7 L16,7 L16,8 Z M16,6 L17,6 C17.5522847,6 18,6.44771525 18,7 L18,8 C18,8.55228475 17.5522847,9 17,9 L16,9 C15.4477153,9 15,8.55228475 15,8 L15,7 C15,6.44771525 15.4477153,6 16,6 Z"/><path d="M11,15 L11,16 L13,16 L13,15 L11,15 Z M11,14 L13,14 C13.5522847,14 14,14.4477153 14,15 L14,16 C14,16.5522847 13.5522847,17 13,17 L11,17 C10.4477153,17 10,16.5522847 10,16 L10,15 C10,14.4477153 10.4477153,14 11,14 Z"/><path d="M11,19 L11,21 L13,21 L13,19 L11,19 Z M11,18 L13,18 C13.5522847,18 14,18.4477153 14,19 L14,22 L10,22 L10,19 C10,18.4477153 10.4477153,18 11,18 Z"/><path d="M16,5 L16,23 L23,23 L23,5 L16,5 Z M16,4 L23,4 C23.5522847,4 24,4.44771525 24,5 L24,23 C24,23.5522847 23.5522847,24 23,24 L15,24 L15,5 C15,4.44771525 15.4477153,4 16,4 Z"/></g></g><g class="vertex" transform="translate(-140 -150)" style="cursor: pointer; pointer-events: auto;"><circle class="handle" r="10" fill="#0E5A8A" stroke="none"/><text x="0" y="15" text-anchor="middle" alignment-baseline="middle" filter="url(#solid)" pointer-events="none" fill="#0E5A8A" style="font-size: 5px; font-family: sans-serif; font-weight: bold; user-select: none;">Avineuro Pharmaceuticals</text><g transform="scale(0.5)translate(-12 -12)" fill="#FFFFFF" pointer-events="none"><path d="M1,5 L1,23 L8,23 L8,5 L1,5 Z M1,4 L9,4 L9,24 L1,24 C0.44771525,24 6.76353751e-17,23.5522847 0,23 L0,5 C-6.76353751e-17,4.44771525 0.44771525,4 1,4 Z"/><path d="M9,22 L9,23 L15,23 L15,22 L9,22 Z M8,21 L16,21 L16,24 L8,24 L8,21 Z"/><path d="M9,1 L9,21 L15,21 L15,1 L9,1 Z M9,0 L15,0 C15.5522847,-1.01453063e-16 16,0.44771525 16,1 L16,22 L8,22 L8,1 C8,0.44771525 8.44771525,1.01453063e-16 9,0 Z"/><path d="M11,3 L11,4 L13,4 L13,3 L11,3 Z M11,2 L13,2 C13.5522847,2 14,2.44771525 14,3 L14,4 C14,4.55228475 13.5522847,5 13,5 L11,5 C10.4477153,5 10,4.55228475 10,4 L10,3 C10,2.44771525 10.4477153,2 11,2 Z"/><path d="M11,7 L11,8 L13,8 L13,7 L11,7 Z M11,6 L13,6 C13.5522847,6 14,6.44771525 14,7 L14,8 C14,8.55228475 13.5522847,9 13,9 L11,9 C10.4477153,9 10,8.55228475 10,8 L10,7 C10,6.44771525 10.4477153,6 11,6 Z"/><path d="M11,11 L11,12 L13,12 L13,11 L11,11 Z M11,10 L13,10 C13.5522847,10 14,10.4477153 14,11 L14,12 C14,12.5522847 13.5522847,13 13,13 L11,13 C10.4477153,13 10,12.5522847 10,12 L10,11 C10,10.4477153 10.4477153,10 11,10 Z"/><path d="M3,8 L4,8 L4,7 L3,7 L3,8 Z M3,6 L4,6 C4.55228475,6 5,6.44771525 5,7 L5,8 C5,8.55228475 4.55228475,9 4,9 L3,9 C2.44771525,9 2,8.55228475 2,8 L2,7 C2,6.44771525 2.44771525,6 3,6 Z"/><path d="M7,8 L8,8 L8,7 L7,7 L7,8 Z M7,6 L8,6 C8.55228475,6 9,6.44771525 9,7 L9,8 C9,8.55228475 8.55228475,9 8,9 L7,9 C6.44771525,9 6,8.55228475 6,8 L6,7 C6,6.44771525 6.44771525,6 7,6 Z"/><path d="M3,12 L4,12 L4,11 L3,11 L3,12 Z M3,10 L4,10 C4.55228475,10 5,10.4477153 5,11 L5,12 C5,12.5522847 4.55228475,13 4,13 L3,13 C2.44771525,13 2,12.5522847 2,12 L2,11 C2,10.4477153 2.44771525,10 3,10 Z"/><path d="M7,12 L8,12 L8,11 L7,11 L7,12 Z M7,10 L8,10 C8.55228475,10 9,10.4477153 9,11 L9,12 C9,12.5522847 8.55228475,13 8,13 L7,13 C6.44771525,13 6,12.5522847 6,12 L6,11 C6,10.4477153 6.44771525,10 7,10 Z"/><path d="M3,16 L4,16 L4,15 L3,15 L3,16 Z M3,14 L4,14 C4.55228475,14 5,14.4477153 5,15 L5,16 C5,16.5522847 4.55228475,17 4,17 L3,17 C2.44771525,17 2,16.5522847 2,16 L2,15 C2,14.4477153 2.44771525,14 3,14 Z"/><path d="M7,16 L8,16 L8,15 L7,15 L7,16 Z M7,14 L8,14 C8.55228475,14 9,14.4477153 9,15 L9,16 C9,16.5522847 8.55228475,17 8,17 L7,17 C6.44771525,17 6,16.5522847 6,16 L6,15 C6,14.4477153 6.44771525,14 7,14 Z"/><path d="M3,20 L4,20 L4,19 L3,19 L3,20 Z M3,18 L4,18 C4.55228475,18 5,18.4477153 5,19 L5,20 C5,20.5522847 4.55228475,21 4,21 L3,21 C2.44771525,21 2,20.5522847 2,20 L2,19 C2,18.4477153 2.44771525,18 3,18 Z"/><path d="M7,20 L8,20 L8,19 L7,19 L7,20 Z M7,18 L8,18 C8.55228475,18 9,18.4477153 9,19 L9,20 C9,20.5522847 8.55228475,21 8,21 L7,21 C6.44771525,21 6,20.5522847 6,20 L6,19 C6,18.4477153 6.44771525,18 7,18 Z"/><path d="M16,20 L17,20 L17,19 L16,19 L16,20 Z M16,18 L17,18 C17.5522847,18 18,18.4477153 18,19 L18,20 C18,20.5522847 17.5522847,21 17,21 L16,21 C15.4477153,21 15,20.5522847 15,20 L15,19 C15,18.4477153 15.4477153,18 16,18 Z"/><path d="M20,20 L21,20 L21,19 L20,19 L20,20 Z M20,18 L21,18 C21.5522847,18 22,18.4477153 22,19 L22,20 C22,20.5522847 21.5522847,21 21,21 L20,21 C19.4477153,21 19,20.5522847 19,20 L19,19 C19,18.4477153 19.4477153,18 20,18 Z"/><path d="M20,16 L21,16 L21,15 L20,15 L20,16 Z M20,14 L21,14 C21.5522847,14 22,14.4477153 22,15 L22,16 C22,16.5522847 21.5522847,17 21,17 L20,17 C19.4477153,17 19,16.5522847 19,16 L19,15 C19,14.4477153 19.4477153,14 20,14 Z"/><path d="M16,16 L17,16 L17,15 L16,15 L16,16 Z M16,14 L17,14 C17.5522847,14 18,14.4477153 18,15 L18,16 C18,16.5522847 17.5522847,17 17,17 L16,17 C15.4477153,17 15,16.5522847 15,16 L15,15 C15,14.4477153 15.4477153,14 16,14 Z"/><path d="M16,12 L17,12 L17,11 L16,11 L16,12 Z M16,10 L17,10 C17.5522847,10 18,10.4477153 18,11 L18,12 C18,12.5522847 17.5522847,13 17,13 L16,13 C15.4477153,13 15,12.5522847 15,12 L15,11 C15,10.4477153 15.4477153,10 16,10 Z"/><path d="M20,12 L21,12 L21,11 L20,11 L20,12 Z M20,10 L21,10 C21.5522847,10 22,10.4477153 22,11 L22,12 C22,12.5522847 21.5522847,13 21,13 L20,13 C19.4477153,13 19,12.5522847 19,12 L19,11 C19,10.4477153 19.4477153,10 20,10 Z"/><path d="M20,8 L21,8 L21,7 L20,7 L20,8 Z M20,6 L21,6 C21.5522847,6 22,6.44771525 22,7 L22,8 C22,8.55228475 21.5522847,9 21,9 L20,9 C19.4477153,9 19,8.55228475 19,8 L19,7 C19,6.44771525 19.4477153,6 20,6 Z"/><path d="M16,8 L17,8 L17,7 L16,7 L16,8 Z M16,6 L17,6 C17.5522847,6 18,6.44771525 18,7 L18,8 C18,8.55228475 17.5522847,9 17,9 L16,9 C15.4477153,9 15,8.55228475 15,8 L15,7 C15,6.44771525 15.4477153,6 16,6 Z"/><path d="M11,15 L11,16 L13,16 L13,15 L11,15 Z M11,14 L13,14 C13.5522847,14 14,14.4477153 14,15 L14,16 C14,16.5522847 13.5522847,17 13,17 L11,17 C10.4477153,17 10,16.5522847 10,16 L10,15 C10,14.4477153 10.4477153,14 11,14 Z"/><path d="M11,19 L11,21 L13,21 L13,19 L11,19 Z M11,18 L13,18 C13.5522847,18 14,18.4477153 14,19 L14,22 L10,22 L10,19 C10,18.4477153 10.4477153,18 11,18 Z"/><path d="M16,5 L16,23 L23,23 L23,5 L16,5 Z M16,4 L23,4 C23.5522847,4 24,4.44771525 24,5 L24,23 C24,23.5522847 23.5522847,24 23,24 L15,24 L15,5 C15,4.44771525 15.4477153,4 16,4 Z"/></g></g><g class="vertex" transform="translate(-140 -200)" style="cursor: pointer; pointer-events: auto;"><circle class="handle" r="10" fill="#0E5A8A" stroke="none"/><text x="0" y="15" text-anchor="middle" alignment-baseline="middle" filter="url(#solid)" pointer-events="none" fill="#0E5A8A" style="font-size: 5px; font-family: sans-serif; font-weight: bold; user-select: none;">Chromis Therapeutics</text><g transform="scale(0.5)translate(-12 -12)" fill="#FFFFFF" pointer-events="none"><path d="M1,5 L1,23 L8,23 L8,5 L1,5 Z M1,4 L9,4 L9,24 L1,24 C0.44771525,24 6.76353751e-17,23.5522847 0,23 L0,5 C-6.76353751e-17,4.44771525 0.44771525,4 1,4 Z"/><path d="M9,22 L9,23 L15,23 L15,22 L9,22 Z M8,21 L16,21 L16,24 L8,24 L8,21 Z"/><path d="M9,1 L9,21 L15,21 L15,1 L9,1 Z M9,0 L15,0 C15.5522847,-1.01453063e-16 16,0.44771525 16,1 L16,22 L8,22 L8,1 C8,0.44771525 8.44771525,1.01453063e-16 9,0 Z"/><path d="M11,3 L11,4 L13,4 L13,3 L11,3 Z M11,2 L13,2 C13.5522847,2 14,2.44771525 14,3 L14,4 C14,4.55228475 13.5522847,5 13,5 L11,5 C10.4477153,5 10,4.55228475 10,4 L10,3 C10,2.44771525 10.4477153,2 11,2 Z"/><path d="M11,7 L11,8 L13,8 L13,7 L11,7 Z M11,6 L13,6 C13.5522847,6 14,6.44771525 14,7 L14,8 C14,8.55228475 13.5522847,9 13,9 L11,9 C10.4477153,9 10,8.55228475 10,8 L10,7 C10,6.44771525 10.4477153,6 11,6 Z"/><path d="M11,11 L11,12 L13,12 L13,11 L11,11 Z M11,10 L13,10 C13.5522847,10 14,10.4477153 14,11 L14,12 C14,12.5522847 13.5522847,13 13,13 L11,13 C10.4477153,13 10,12.5522847 10,12 L10,11 C10,10.4477153 10.4477153,10 11,10 Z"/><path d="M3,8 L4,8 L4,7 L3,7 L3,8 Z M3,6 L4,6 C4.55228475,6 5,6.44771525 5,7 L5,8 C5,8.55228475 4.55228475,9 4,9 L3,9 C2.44771525,9 2,8.55228475 2,8 L2,7 C2,6.44771525 2.44771525,6 3,6 Z"/><path d="M7,8 L8,8 L8,7 L7,7 L7,8 Z M7,6 L8,6 C8.55228475,6 9,6.44771525 9,7 L9,8 C9,8.55228475 8.55228475,9 8,9 L7,9 C6.44771525,9 6,8.55228475 6,8 L6,7 C6,6.44771525 6.44771525,6 7,6 Z"/><path d="M3,12 L4,12 L4,11 L3,11 L3,12 Z M3,10 L4,10 C4.55228475,10 5,10.4477153 5,11 L5,12 C5,12.5522847 4.55228475,13 4,13 L3,13 C2.44771525,13 2,12.5522847 2,12 L2,11 C2,10.4477153 2.44771525,10 3,10 Z"/><path d="M7,12 L8,12 L8,11 L7,11 L7,12 Z M7,10 L8,10 C8.55228475,10 9,10.4477153 9,11 L9,12 C9,12.5522847 8.55228475,13 8,13 L7,13 C6.44771525,13 6,12.5522847 6,12 L6,11 C6,10.4477153 6.44771525,10 7,10 Z"/><path d="M3,16 L4,16 L4,15 L3,15 L3,16 Z M3,14 L4,14 C4.55228475,14 5,14.4477153 5,15 L5,16 C5,16.5522847 4.55228475,17 4,17 L3,17 C2.44771525,17 2,16.5522847 2,16 L2,15 C2,14.4477153 2.44771525,14 3,14 Z"/><path d="M7,16 L8,16 L8,15 L7,15 L7,16 Z M7,14 L8,14 C8.55228475,14 9,14.4477153 9,15 L9,16 C9,16.5522847 8.55228475,17 8,17 L7,17 C6.44771525,17 6,16.5522847 6,16 L6,15 C6,14.4477153 6.44771525,14 7,14 Z"/><path d="M3,20 L4,20 L4,19 L3,19 L3,20 Z M3,18 L4,18 C4.55228475,18 5,18.4477153 5,19 L5,20 C5,20.5522847 4.55228475,21 4,21 L3,21 C2.44771525,21 2,20.5522847 2,20 L2,19 C2,18.4477153 2.44771525,18 3,18 Z"/><path d="M7,20 L8,20 L8,19 L7,19 L7,20 Z M7,18 L8,18 C8.55228475,18 9,18.4477153 9,19 L9,20 C9,20.5522847 8.55228475,21 8,21 L7,21 C6.44771525,21 6,20.5522847 6,20 L6,19 C6,18.4477153 6.44771525,18 7,18 Z"/><path d="M16,20 L17,20 L17,19 L16,19 L16,20 Z M16,18 L17,18 C17.5522847,18 18,18.4477153 18,19 L18,20 C18,20.5522847 17.5522847,21 17,21 L16,21 C15.4477153,21 15,20.5522847 15,20 L15,19 C15,18.4477153 15.4477153,18 16,18 Z"/><path d="M20,20 L21,20 L21,19 L20,19 L20,20 Z M20,18 L21,18 C21.5522847,18 22,18.4477153 22,19 L22,20 C22,20.5522847 21.5522847,21 21,21 L20,21 C19.4477153,21 19,20.5522847 19,20 L19,19 C19,18.4477153 19.4477153,18 20,18 Z"/><path d="M20,16 L21,16 L21,15 L20,15 L20,16 Z M20,14 L21,14 C21.5522847,14 22,14.4477153 22,15 L22,16 C22,16.5522847 21.5522847,17 21,17 L20,17 C19.4477153,17 19,16.5522847 19,16 L19,15 C19,14.4477153 19.4477153,14 20,14 Z"/><path d="M16,16 L17,16 L17,15 L16,15 L16,16 Z M16,14 L17,14 C17.5522847,14 18,14.4477153 18,15 L18,16 C18,16.5522847 17.5522847,17 17,17 L16,17 C15.4477153,17 15,16.5522847 15,16 L15,15 C15,14.4477153 15.4477153,14 16,14 Z"/><path d="M16,12 L17,12 L17,11 L16,11 L16,12 Z M16,10 L17,10 C17.5522847,10 18,10.4477153 18,11 L18,12 C18,12.5522847 17.5522847,13 17,13 L16,13 C15.4477153,13 15,12.5522847 15,12 L15,11 C15,10.4477153 15.4477153,10 16,10 Z"/><path d="M20,12 L21,12 L21,11 L20,11 L20,12 Z M20,10 L21,10 C21.5522847,10 22,10.4477153 22,11 L22,12 C22,12.5522847 21.5522847,13 21,13 L20,13 C19.4477153,13 19,12.5522847 19,12 L19,11 C19,10.4477153 19.4477153,10 20,10 Z"/><path d="M20,8 L21,8 L21,7 L20,7 L20,8 Z M20,6 L21,6 C21.5522847,6 22,6.44771525 22,7 L22,8 C22,8.55228475 21.5522847,9 21,9 L20,9 C19.4477153,9 19,8.55228475 19,8 L19,7 C19,6.44771525 19.4477153,6 20,6 Z"/><path d="M16,8 L17,8 L17,7 L16,7 L16,8 Z M16,6 L17,6 C17.5522847,6 18,6.44771525 18,7 L18,8 C18,8.55228475 17.5522847,9 17,9 L16,9 C15.4477153,9 15,8.55228475 15,8 L15,7 C15,6.44771525 15.4477153,6 16,6 Z"/><path d="M11,15 L11,16 L13,16 L13,15 L11,15 Z M11,14 L13,14 C13.5522847,14 14,14.4477153 14,15 L14,16 C14,16.5522847 13.5522847,17 13,17 L11,17 C10.4477153,17 10,16.5522847 10,16 L10,15 C10,14.4477153 10.4477153,14 11,14 Z"/><path d="M11,19 L11,21 L13,21 L13,19 L11,19 Z M11,18 L13,18 C13.5522847,18 14,18.4477153 14,19 L14,22 L10,22 L10,19 C10,18.4477153 10.4477153,18 11,18 Z"/><path d="M16,5 L16,23 L23,23 L23,5 L16,5 Z M16,4 L23,4 C23.5522847,4 24,4.44771525 24,5 L24,23 C24,23.5522847 23.5522847,24 23,24 L15,24 L15,5 C15,4.44771525 15.4477153,4 16,4 Z"/></g></g><rect id="selection" stroke="black" stroke-width="0.5px" stroke-dasharray="2" fill-opacity="0" x="0" y="0" width="0" height="0"/></g><defs><pattern id="grid" width="10" height="10" patternUnits="userSpaceOnUse"><path d="M 10 0 L 0 0 0 10" fill="none" stroke="#E5E8EB" stroke-width="0.5"/></pattern><marker id="arrow" viewBox="0 0 10 10" refX="29" refY="5" markerWidth="5" markerHeight="5" orient="auto-start-reverse" fill="#738091"><path d="M 0 0 L 10 5 L 0 10 z"/></marker><marker id="arrow-unselected" viewBox="0 0 10 10" refX="29" refY="5" markerWidth="5" markerHeight="5" orient="auto-start-reverse" fill="#C5CBD3"><path d="M 0 0 L 10 5 L 0 10 z"/></marker><filter x="0" y="0" width="1" height="1" id="solid"><feFlood flood-color="#ffffff"/><feComposite in="SourceGraphic"/></filter></defs></svg>